<?xml version="1.0" encoding="utf-8"?>
<!-- Generator: Adobe Illustrator 24.0.1, SVG Export Plug-In . SVG Version: 6.00 Build 0)  -->
<svg version="1.1" id="Layer_1" xmlns="http://www.w3.org/2000/svg" xmlns:xlink="http://www.w3.org/1999/xlink" x="0px" y="0px"
	 viewBox="0 0 210.2 249.1" style="enable-background:new 0 0 210.2 249.1;" xml:space="preserve">
<g>
	<g>
		<path d="M85.8,15.4l0.1-0.4v164.6L34,127.8c-2.5-2.5-6-3.9-9.6-3.9c-3.6,0-7,1.4-9.5,3.9l-8.1,8.1c-2.5,2.5-3.9,5.9-3.9,9.5
			c0,3.6,1.4,7,3.9,9.5l88.7,88.7c2.5,2.5,5.9,3.9,9.5,3.9c3.6,0,7-1.4,9.5-3.9l88.7-88.7c2.5-2.5,3.9-5.9,3.9-9.5
			c0-3.6-1.4-7-3.9-9.5l-8.1-8.1c-2.5-2.5-5.9-3.9-9.5-3.9c-3.6,0-6.8,1.4-9.3,3.9l-52.2,52.3v-165c0-7.4-6.4-13.6-13.8-13.6H99.1
			C91.7,1.5,85.8,8,85.8,15.4z"/>
	</g>
</g>
</svg>
